<?xml version="1.0" encoding="UTF-8" standalone="no"?>
<svg
   xmlns:dc="http://purl.org/dc/elements/1.1/"
   xmlns:cc="http://creativecommons.org/ns#"
   xmlns:rdf="http://www.w3.org/1999/02/22-rdf-syntax-ns#"
   xmlns:svg="http://www.w3.org/2000/svg"
   xmlns="http://www.w3.org/2000/svg"
   xmlns:sodipodi="http://sodipodi.sourceforge.net/DTD/sodipodi-0.dtd"
   xmlns:inkscape="http://www.inkscape.org/namespaces/inkscape"
   id="Layer"
   enable-background="new 0 0 64 64"
   height="512"
   viewBox="0 0 64 64"
   width="512"
   version="1.1"
   sodipodi:docname="distance.svg"
   inkscape:version="0.92.2 5c3e80d, 2017-08-06">
  <metadata
     id="metadata3816">
    <rdf:RDF>
      <cc:Work
         rdf:about="">
        <dc:format>image/svg+xml</dc:format>
        <dc:type
           rdf:resource="http://purl.org/dc/dcmitype/StillImage" />
      </cc:Work>
    </rdf:RDF>
  </metadata>
  <defs
     id="defs3814" />
  <sodipodi:namedview
     pagecolor="#ffffff"
     bordercolor="#666666"
     borderopacity="1"
     objecttolerance="10"
     gridtolerance="10"
     guidetolerance="10"
     inkscape:pageopacity="0"
     inkscape:pageshadow="2"
     inkscape:window-width="640"
     inkscape:window-height="480"
     id="namedview3812"
     showgrid="false"
     inkscape:zoom="0.4609375"
     inkscape:cx="256"
     inkscape:cy="256"
     inkscape:window-x="0"
     inkscape:window-y="0"
     inkscape:window-maximized="0"
     inkscape:current-layer="Layer" />
  <path
     d="m18 35.121s10-12.226 10-17.121c0-5.514-4.486-10-10-10s-10 4.486-10 10c0 4.896 10 17.121 10 17.121zm0-23.121c3.309 0 6 2.691 6 6 0 2.146-3.14 7.059-6 10.794-2.861-3.732-6-8.644-6-10.794 0-3.309 2.691-6 6-6z"
     id="path3801"
     style="fill:#ffffff" />
  <path
     d="m46 29c-5.514 0-10 4.486-10 10 0 4.896 10 17.121 10 17.121s10-12.225 10-17.121c0-5.514-4.486-10-10-10zm0 20.794c-2.861-3.732-6-8.644-6-10.794 0-3.309 2.691-6 6-6s6 2.691 6 6c0 2.146-3.14 7.059-6 10.794z"
     id="path3803"
     style="fill:#ffffff" />
  <path
     d="m12 49c0-1.654 1.346-3 3-3h10c3.859 0 7-3.141 7-7s-3.141-7-7-7h-1v4h1c1.654 0 3 1.346 3 3s-1.346 3-3 3h-10c-3.859 0-7 3.141-7 7s3.141 7 7 7h25v-4h-25c-1.654 0-3-1.346-3-3z"
     id="path3805"
     style="fill:#ffffff" />
  <path
     d="m16 16h4v4h-4z"
     id="path3807"
     style="fill:#ffffff" />
  <path
     d="m44 37h4v4h-4z"
     id="path3809"
     style="fill:#ffffff" />
</svg>
