<?xml version="1.0" encoding="UTF-8" standalone="no"?>
<svg
   xmlns:dc="http://purl.org/dc/elements/1.1/"
   xmlns:cc="http://creativecommons.org/ns#"
   xmlns:rdf="http://www.w3.org/1999/02/22-rdf-syntax-ns#"
   xmlns:svg="http://www.w3.org/2000/svg"
   xmlns="http://www.w3.org/2000/svg"
   xmlns:sodipodi="http://sodipodi.sourceforge.net/DTD/sodipodi-0.dtd"
   xmlns:inkscape="http://www.inkscape.org/namespaces/inkscape"
   height="512pt"
   version="1.1"
   viewBox="0 0 512.00085 512"
   width="512pt"
   id="svg3751"
   sodipodi:docname="mountain.svg"
   inkscape:version="0.92.2 5c3e80d, 2017-08-06">
  <metadata
     id="metadata3757">
    <rdf:RDF>
      <cc:Work
         rdf:about="">
        <dc:format>image/svg+xml</dc:format>
        <dc:type
           rdf:resource="http://purl.org/dc/dcmitype/StillImage" />
        <dc:title></dc:title>
      </cc:Work>
    </rdf:RDF>
  </metadata>
  <defs
     id="defs3755" />
  <sodipodi:namedview
     pagecolor="#ffffff"
     bordercolor="#666666"
     borderopacity="1"
     objecttolerance="10"
     gridtolerance="10"
     guidetolerance="10"
     inkscape:pageopacity="0"
     inkscape:pageshadow="2"
     inkscape:window-width="1160"
     inkscape:window-height="891"
     id="namedview3753"
     showgrid="false"
     inkscape:pagecheckerboard="true"
     inkscape:zoom="1.0458984"
     inkscape:cx="341.33333"
     inkscape:cy="341.33333"
     inkscape:window-x="0"
     inkscape:window-y="0"
     inkscape:window-maximized="0"
     inkscape:current-layer="svg3751" />
  <g
     id="surface1"
     style="fill:#ffffff">
    <path
       d="M 509 488 L 292.101562 198.800781 C 286.351562 191.136719 279.042969 185.519531 271 182.394531 L 271 110.335938 L 376.5 110.335938 C 376.507812 110.335938 376.511719 110.332031 376.519531 110.335938 C 384.804688 110.335938 391.519531 103.617188 391.519531 95.335938 C 391.519531 90.957031 389.644531 87.015625 386.65625 84.277344 L 357.546875 55.167969 L 387.105469 25.605469 C 391.398438 21.316406 392.679688 14.863281 390.359375 9.257812 C 388.039062 3.65625 382.566406 0 376.5 0 L 256 0 C 247.714844 0 241 6.714844 241 15 L 241 182.394531 C 232.957031 185.519531 225.648438 191.136719 219.902344 198.800781 L 3 488 C -0.410156 492.546875 -0.957031 498.625 1.582031 503.707031 C 4.125 508.789062 9.320312 512 15 512 L 497 512 C 502.683594 512 507.875 508.789062 510.417969 503.707031 C 512.957031 498.628906 512.410156 492.546875 509 488 Z M 271 30 L 340.289062 30 L 325.726562 44.558594 C 319.871094 50.417969 319.871094 59.914062 325.726562 65.773438 L 340.289062 80.335938 L 271 80.335938 Z M 243.902344 216.800781 C 247.410156 212.121094 251.707031 209.546875 256 209.546875 C 260.296875 209.546875 264.59375 212.125 268.101562 216.800781 L 339.410156 311.878906 L 307.402344 347.253906 L 267.125 302.742188 C 264.28125 299.597656 260.242188 297.804688 256 297.804688 C 251.761719 297.804688 247.722656 299.597656 244.878906 302.742188 L 204.601562 347.253906 L 172.59375 311.878906 Z M 45 482 L 154.257812 336.324219 L 193.480469 379.671875 C 196.320312 382.816406 200.363281 384.609375 204.601562 384.609375 C 208.839844 384.609375 212.878906 382.816406 215.722656 379.671875 L 256 335.160156 L 296.277344 379.671875 C 299.121094 382.816406 303.160156 384.609375 307.398438 384.609375 C 311.636719 384.609375 315.675781 382.816406 318.523438 379.671875 L 357.746094 336.328125 L 467 482 Z M 45 482 "
       style="stroke:none;fill-rule:nonzero;fill:#ffffff;fill-opacity:1"
       id="path3748" />
  </g>
</svg>
